<mxfile host="Electron" agent="Mozilla/5.0 (Macintosh; Intel Mac OS X 10_15_7) AppleWebKit/537.36 (KHTML, like Gecko) draw.io/28.2.8 Chrome/140.0.7339.240 Electron/38.4.0 Safari/537.36" version="28.2.8">
  <diagram name="Page-1" id="Y3Xq_wQBEwPdY-0Bgl0l">
    <mxGraphModel dx="1678" dy="999" grid="1" gridSize="10" guides="1" tooltips="1" connect="1" arrows="1" fold="1" page="1" pageScale="1" pageWidth="4681" pageHeight="3300" math="0" shadow="0">
      <root>
        <mxCell id="0" />
        <mxCell id="1" parent="0" />
        <mxCell id="FNdhJYa_czp9hUCBb_Yy-5" value="" style="rounded=0;whiteSpace=wrap;html=1;" vertex="1" parent="1">
          <mxGeometry x="200" y="110" width="700" height="650" as="geometry" />
        </mxCell>
        <mxCell id="FNdhJYa_czp9hUCBb_Yy-1" value="Cloud Network" style="text;html=1;whiteSpace=wrap;strokeColor=none;fillColor=none;align=center;verticalAlign=middle;rounded=0;" vertex="1" parent="1">
          <mxGeometry x="210" y="120" width="60" height="30" as="geometry" />
        </mxCell>
        <mxCell id="FNdhJYa_czp9hUCBb_Yy-6" value="" style="rounded=0;whiteSpace=wrap;html=1;" vertex="1" parent="1">
          <mxGeometry x="230" y="170" width="190" height="130" as="geometry" />
        </mxCell>
        <mxCell id="FNdhJYa_czp9hUCBb_Yy-7" value="" style="rounded=0;whiteSpace=wrap;html=1;" vertex="1" parent="1">
          <mxGeometry x="450" y="170" width="190" height="130" as="geometry" />
        </mxCell>
        <mxCell id="FNdhJYa_czp9hUCBb_Yy-8" value="Subnetwork 1&lt;div&gt;10.1.1.0/24&lt;/div&gt;" style="text;html=1;whiteSpace=wrap;strokeColor=none;fillColor=none;align=left;verticalAlign=middle;rounded=0;" vertex="1" parent="1">
          <mxGeometry x="237" y="170" width="90" height="50" as="geometry" />
        </mxCell>
        <mxCell id="FNdhJYa_czp9hUCBb_Yy-10" value="Subnetwork 2&lt;div&gt;10.2.1.0/24&lt;/div&gt;" style="text;html=1;whiteSpace=wrap;strokeColor=none;fillColor=none;align=left;verticalAlign=middle;rounded=0;" vertex="1" parent="1">
          <mxGeometry x="458" y="170" width="90" height="50" as="geometry" />
        </mxCell>
        <mxCell id="FNdhJYa_czp9hUCBb_Yy-11" value="Cloud Compute Instance 1&lt;span style=&quot;color: rgba(0, 0, 0, 0); font-family: monospace; font-size: 0px; text-align: start; text-wrap-mode: nowrap;&quot;&gt;%3CmxGraphModel%3E%3Croot%3E%3CmxCell%20id%3D%220%22%2F%3E%3CmxCell%20id%3D%221%22%20parent%3D%220%22%2F%3E%3CmxCell%20id%3D%222%22%20value%3D%22Subnetwork%201%26lt%3Bdiv%26gt%3B10.1.1.0%2F24%26lt%3B%2Fdiv%26gt%3B%22%20style%3D%22text%3Bhtml%3D1%3BwhiteSpace%3Dwrap%3BstrokeColor%3Dnone%3BfillColor%3Dnone%3Balign%3Dleft%3BverticalAlign%3Dmiddle%3Brounded%3D0%3B%22%20vertex%3D%221%22%20parent%3D%221%22%3E%3CmxGeometry%20x%3D%22230%22%20y%3D%22170%22%20width%3D%2290%22%20height%3D%2250%22%20as%3D%22geometry%22%2F%3E%3C%2FmxCell%3E%3C%2Froot%3E%3C%2FmxGraphModel%3E&lt;/span&gt;" style="shape=process;whiteSpace=wrap;html=1;backgroundOutline=1;" vertex="1" parent="1">
          <mxGeometry x="250" y="220" width="120" height="60" as="geometry" />
        </mxCell>
        <mxCell id="FNdhJYa_czp9hUCBb_Yy-12" value="Cloud Compute Instance 2&lt;span style=&quot;color: rgba(0, 0, 0, 0); font-family: monospace; font-size: 0px; text-align: start; text-wrap-mode: nowrap;&quot;&gt;%3CmxGraphModel%3E%3Croot%3E%3CmxCell%20id%3D%220%22%2F%3E%3CmxCell%20id%3D%221%22%20parent%3D%220%22%2F%3E%3CmxCell%20id%3D%222%22%20value%3D%22Subnetwork%201%26lt%3Bdiv%26gt%3B10.1.1.0%2F24%26lt%3B%2Fdiv%26gt%3B%22%20style%3D%22text%3Bhtml%3D1%3BwhiteSpace%3Dwrap%3BstrokeColor%3Dnone%3BfillColor%3Dnone%3Balign%3Dleft%3BverticalAlign%3Dmiddle%3Brounded%3D0%3B%22%20vertex%3D%221%22%20parent%3D%221%22%3E%3CmxGeometry%20x%3D%22230%22%20y%3D%22170%22%20width%3D%2290%22%20height%3D%2250%22%20as%3D%22geometry%22%2F%3E%3C%2FmxCell%3E%3C%2Froot%3E%3C%2FmxGraphModel%3E&lt;/span&gt;" style="shape=process;whiteSpace=wrap;html=1;backgroundOutline=1;" vertex="1" parent="1">
          <mxGeometry x="470" y="220" width="120" height="60" as="geometry" />
        </mxCell>
        <mxCell id="FNdhJYa_czp9hUCBb_Yy-13" value="" style="rounded=0;whiteSpace=wrap;html=1;" vertex="1" parent="1">
          <mxGeometry x="230" y="344" width="230" height="396" as="geometry" />
        </mxCell>
        <mxCell id="FNdhJYa_czp9hUCBb_Yy-14" value="Firewall" style="text;html=1;whiteSpace=wrap;strokeColor=none;fillColor=none;align=left;verticalAlign=middle;rounded=0;" vertex="1" parent="1">
          <mxGeometry x="237" y="344" width="90" height="30" as="geometry" />
        </mxCell>
        <mxCell id="FNdhJYa_czp9hUCBb_Yy-20" value="Rule 1 (10.0.0.0/8)" style="swimlane;fontStyle=0;childLayout=stackLayout;horizontal=1;startSize=30;horizontalStack=0;resizeParent=1;resizeParentMax=0;resizeLast=0;collapsible=1;marginBottom=0;whiteSpace=wrap;html=1;" vertex="1" parent="1">
          <mxGeometry x="290" y="360" width="140" height="120" as="geometry" />
        </mxCell>
        <mxCell id="FNdhJYa_czp9hUCBb_Yy-21" value="tcp: 0 - 65535" style="text;strokeColor=none;fillColor=none;align=left;verticalAlign=middle;spacingLeft=4;spacingRight=4;overflow=hidden;points=[[0,0.5],[1,0.5]];portConstraint=eastwest;rotatable=0;whiteSpace=wrap;html=1;" vertex="1" parent="FNdhJYa_czp9hUCBb_Yy-20">
          <mxGeometry y="30" width="140" height="30" as="geometry" />
        </mxCell>
        <mxCell id="FNdhJYa_czp9hUCBb_Yy-22" value="udp: 0 - 65535" style="text;strokeColor=none;fillColor=none;align=left;verticalAlign=middle;spacingLeft=4;spacingRight=4;overflow=hidden;points=[[0,0.5],[1,0.5]];portConstraint=eastwest;rotatable=0;whiteSpace=wrap;html=1;" vertex="1" parent="FNdhJYa_czp9hUCBb_Yy-20">
          <mxGeometry y="60" width="140" height="30" as="geometry" />
        </mxCell>
        <mxCell id="FNdhJYa_czp9hUCBb_Yy-23" value="icmp" style="text;strokeColor=none;fillColor=none;align=left;verticalAlign=middle;spacingLeft=4;spacingRight=4;overflow=hidden;points=[[0,0.5],[1,0.5]];portConstraint=eastwest;rotatable=0;whiteSpace=wrap;html=1;" vertex="1" parent="FNdhJYa_czp9hUCBb_Yy-20">
          <mxGeometry y="90" width="140" height="30" as="geometry" />
        </mxCell>
        <mxCell id="FNdhJYa_czp9hUCBb_Yy-24" value="Rule 2 (0.0.0.0/0)" style="swimlane;fontStyle=0;childLayout=stackLayout;horizontal=1;startSize=30;horizontalStack=0;resizeParent=1;resizeParentMax=0;resizeLast=0;collapsible=1;marginBottom=0;whiteSpace=wrap;html=1;" vertex="1" parent="1">
          <mxGeometry x="290" y="490" width="140" height="90" as="geometry" />
        </mxCell>
        <mxCell id="FNdhJYa_czp9hUCBb_Yy-25" value="tcp: 22" style="text;strokeColor=none;fillColor=none;align=left;verticalAlign=middle;spacingLeft=4;spacingRight=4;overflow=hidden;points=[[0,0.5],[1,0.5]];portConstraint=eastwest;rotatable=0;whiteSpace=wrap;html=1;" vertex="1" parent="FNdhJYa_czp9hUCBb_Yy-24">
          <mxGeometry y="30" width="140" height="30" as="geometry" />
        </mxCell>
        <mxCell id="FNdhJYa_czp9hUCBb_Yy-26" value="icmp" style="text;strokeColor=none;fillColor=none;align=left;verticalAlign=middle;spacingLeft=4;spacingRight=4;overflow=hidden;points=[[0,0.5],[1,0.5]];portConstraint=eastwest;rotatable=0;whiteSpace=wrap;html=1;" vertex="1" parent="FNdhJYa_czp9hUCBb_Yy-24">
          <mxGeometry y="60" width="140" height="30" as="geometry" />
        </mxCell>
        <mxCell id="FNdhJYa_czp9hUCBb_Yy-28" value="Rule 3 (192.168.1.0/24)" style="swimlane;fontStyle=0;childLayout=stackLayout;horizontal=1;startSize=30;horizontalStack=0;resizeParent=1;resizeParentMax=0;resizeLast=0;collapsible=1;marginBottom=0;whiteSpace=wrap;html=1;" vertex="1" parent="1">
          <mxGeometry x="290" y="590" width="140" height="120" as="geometry" />
        </mxCell>
        <mxCell id="FNdhJYa_czp9hUCBb_Yy-29" value="tcp" style="text;strokeColor=none;fillColor=none;align=left;verticalAlign=middle;spacingLeft=4;spacingRight=4;overflow=hidden;points=[[0,0.5],[1,0.5]];portConstraint=eastwest;rotatable=0;whiteSpace=wrap;html=1;" vertex="1" parent="FNdhJYa_czp9hUCBb_Yy-28">
          <mxGeometry y="30" width="140" height="30" as="geometry" />
        </mxCell>
        <mxCell id="FNdhJYa_czp9hUCBb_Yy-30" value="udp" style="text;strokeColor=none;fillColor=none;align=left;verticalAlign=middle;spacingLeft=4;spacingRight=4;overflow=hidden;points=[[0,0.5],[1,0.5]];portConstraint=eastwest;rotatable=0;whiteSpace=wrap;html=1;" vertex="1" parent="FNdhJYa_czp9hUCBb_Yy-28">
          <mxGeometry y="60" width="140" height="30" as="geometry" />
        </mxCell>
        <mxCell id="FNdhJYa_czp9hUCBb_Yy-31" value="icmp" style="text;strokeColor=none;fillColor=none;align=left;verticalAlign=middle;spacingLeft=4;spacingRight=4;overflow=hidden;points=[[0,0.5],[1,0.5]];portConstraint=eastwest;rotatable=0;whiteSpace=wrap;html=1;" vertex="1" parent="FNdhJYa_czp9hUCBb_Yy-28">
          <mxGeometry y="90" width="140" height="30" as="geometry" />
        </mxCell>
        <mxCell id="FNdhJYa_czp9hUCBb_Yy-32" value="" style="rounded=0;whiteSpace=wrap;html=1;" vertex="1" parent="1">
          <mxGeometry x="492" y="412" width="310" height="260" as="geometry" />
        </mxCell>
        <mxCell id="FNdhJYa_czp9hUCBb_Yy-33" value="Router (ASN: 65001)" style="text;html=1;whiteSpace=wrap;strokeColor=none;fillColor=none;align=left;verticalAlign=middle;rounded=0;" vertex="1" parent="1">
          <mxGeometry x="512" y="422" width="159" height="30" as="geometry" />
        </mxCell>
        <mxCell id="FNdhJYa_czp9hUCBb_Yy-34" value="Interface 0" style="swimlane;fontStyle=0;childLayout=stackLayout;horizontal=1;startSize=30;horizontalStack=0;resizeParent=1;resizeParentMax=0;resizeLast=0;collapsible=1;marginBottom=0;whiteSpace=wrap;html=1;" vertex="1" parent="1">
          <mxGeometry x="512" y="452" width="140" height="90" as="geometry" />
        </mxCell>
        <mxCell id="FNdhJYa_czp9hUCBb_Yy-35" value="&quot;tunnel 0 to on-prem&quot;" style="text;strokeColor=none;fillColor=none;align=left;verticalAlign=middle;spacingLeft=4;spacingRight=4;overflow=hidden;points=[[0,0.5],[1,0.5]];portConstraint=eastwest;rotatable=0;whiteSpace=wrap;html=1;" vertex="1" parent="FNdhJYa_czp9hUCBb_Yy-34">
          <mxGeometry y="30" width="140" height="30" as="geometry" />
        </mxCell>
        <mxCell id="FNdhJYa_czp9hUCBb_Yy-36" value="169.254.0.1/30" style="text;strokeColor=none;fillColor=none;align=left;verticalAlign=middle;spacingLeft=4;spacingRight=4;overflow=hidden;points=[[0,0.5],[1,0.5]];portConstraint=eastwest;rotatable=0;whiteSpace=wrap;html=1;" vertex="1" parent="FNdhJYa_czp9hUCBb_Yy-34">
          <mxGeometry y="60" width="140" height="30" as="geometry" />
        </mxCell>
        <mxCell id="FNdhJYa_czp9hUCBb_Yy-37" value="Interface 1" style="swimlane;fontStyle=0;childLayout=stackLayout;horizontal=1;startSize=30;horizontalStack=0;resizeParent=1;resizeParentMax=0;resizeLast=0;collapsible=1;marginBottom=0;whiteSpace=wrap;html=1;" vertex="1" parent="1">
          <mxGeometry x="512" y="562" width="140" height="90" as="geometry" />
        </mxCell>
        <mxCell id="FNdhJYa_czp9hUCBb_Yy-38" value="&quot;tunnel 1 to on-prem&quot;" style="text;strokeColor=none;fillColor=none;align=left;verticalAlign=middle;spacingLeft=4;spacingRight=4;overflow=hidden;points=[[0,0.5],[1,0.5]];portConstraint=eastwest;rotatable=0;whiteSpace=wrap;html=1;" vertex="1" parent="FNdhJYa_czp9hUCBb_Yy-37">
          <mxGeometry y="30" width="140" height="30" as="geometry" />
        </mxCell>
        <mxCell id="FNdhJYa_czp9hUCBb_Yy-39" value="169.254.1.1/30" style="text;strokeColor=none;fillColor=none;align=left;verticalAlign=middle;spacingLeft=4;spacingRight=4;overflow=hidden;points=[[0,0.5],[1,0.5]];portConstraint=eastwest;rotatable=0;whiteSpace=wrap;html=1;" vertex="1" parent="FNdhJYa_czp9hUCBb_Yy-37">
          <mxGeometry y="60" width="140" height="30" as="geometry" />
        </mxCell>
        <mxCell id="FNdhJYa_czp9hUCBb_Yy-41" value="" style="rounded=0;whiteSpace=wrap;html=1;" vertex="1" parent="1">
          <mxGeometry x="816" y="412" width="120" height="260" as="geometry" />
        </mxCell>
        <mxCell id="FNdhJYa_czp9hUCBb_Yy-42" value="VPN Gateway" style="text;html=1;whiteSpace=wrap;strokeColor=none;fillColor=none;align=center;verticalAlign=middle;rounded=0;" vertex="1" parent="1">
          <mxGeometry x="826" y="422" width="60" height="30" as="geometry" />
        </mxCell>
        <mxCell id="FNdhJYa_czp9hUCBb_Yy-44" value="Interface 0" style="rounded=0;whiteSpace=wrap;html=1;" vertex="1" parent="1">
          <mxGeometry x="826" y="477" width="100" height="40" as="geometry" />
        </mxCell>
        <mxCell id="FNdhJYa_czp9hUCBb_Yy-45" value="Interface 1" style="rounded=0;whiteSpace=wrap;html=1;" vertex="1" parent="1">
          <mxGeometry x="826" y="587" width="100" height="40" as="geometry" />
        </mxCell>
        <mxCell id="FNdhJYa_czp9hUCBb_Yy-46" value="" style="endArrow=classic;startArrow=classic;html=1;rounded=0;exitX=1;exitY=0.5;exitDx=0;exitDy=0;entryX=0;entryY=0.5;entryDx=0;entryDy=0;" edge="1" parent="1" source="FNdhJYa_czp9hUCBb_Yy-35" target="FNdhJYa_czp9hUCBb_Yy-44">
          <mxGeometry width="50" height="50" relative="1" as="geometry">
            <mxPoint x="812" y="450" as="sourcePoint" />
            <mxPoint x="862" y="400" as="targetPoint" />
          </mxGeometry>
        </mxCell>
        <mxCell id="FNdhJYa_czp9hUCBb_Yy-47" value="" style="endArrow=classic;startArrow=classic;html=1;rounded=0;exitX=0;exitY=0.5;exitDx=0;exitDy=0;entryX=1;entryY=0.5;entryDx=0;entryDy=0;" edge="1" parent="1" source="FNdhJYa_czp9hUCBb_Yy-45" target="FNdhJYa_czp9hUCBb_Yy-38">
          <mxGeometry width="50" height="50" relative="1" as="geometry">
            <mxPoint x="912" y="606.5" as="sourcePoint" />
            <mxPoint x="652" y="606.5" as="targetPoint" />
          </mxGeometry>
        </mxCell>
        <mxCell id="FNdhJYa_czp9hUCBb_Yy-48" value="" style="endArrow=classic;startArrow=classic;html=1;rounded=0;exitX=1;exitY=0.5;exitDx=0;exitDy=0;entryX=0;entryY=0.5;entryDx=0;entryDy=0;" edge="1" parent="1" source="FNdhJYa_czp9hUCBb_Yy-13" target="FNdhJYa_czp9hUCBb_Yy-32">
          <mxGeometry width="50" height="50" relative="1" as="geometry">
            <mxPoint x="642" y="360" as="sourcePoint" />
            <mxPoint x="692" y="310" as="targetPoint" />
          </mxGeometry>
        </mxCell>
        <mxCell id="FNdhJYa_czp9hUCBb_Yy-49" value="" style="endArrow=classic;startArrow=classic;html=1;rounded=0;entryX=0.25;entryY=1;entryDx=0;entryDy=0;exitX=0.5;exitY=0;exitDx=0;exitDy=0;edgeStyle=orthogonalEdgeStyle;" edge="1" parent="1" source="FNdhJYa_czp9hUCBb_Yy-13" target="FNdhJYa_czp9hUCBb_Yy-7">
          <mxGeometry width="50" height="50" relative="1" as="geometry">
            <mxPoint x="970" y="450" as="sourcePoint" />
            <mxPoint x="1020" y="400" as="targetPoint" />
          </mxGeometry>
        </mxCell>
        <mxCell id="FNdhJYa_czp9hUCBb_Yy-50" value="" style="endArrow=classic;startArrow=classic;html=1;rounded=0;entryX=0.5;entryY=1;entryDx=0;entryDy=0;exitX=0.5;exitY=0;exitDx=0;exitDy=0;edgeStyle=orthogonalEdgeStyle;" edge="1" parent="1" source="FNdhJYa_czp9hUCBb_Yy-13" target="FNdhJYa_czp9hUCBb_Yy-6">
          <mxGeometry width="50" height="50" relative="1" as="geometry">
            <mxPoint x="490" y="384" as="sourcePoint" />
            <mxPoint x="555" y="340" as="targetPoint" />
          </mxGeometry>
        </mxCell>
        <mxCell id="FNdhJYa_czp9hUCBb_Yy-51" value="Peer Connection 0&lt;div&gt;169.254.0.2&lt;/div&gt;" style="text;html=1;whiteSpace=wrap;strokeColor=none;fillColor=none;align=center;verticalAlign=middle;rounded=0;" vertex="1" parent="1">
          <mxGeometry x="672" y="472" width="120" height="50" as="geometry" />
        </mxCell>
        <mxCell id="FNdhJYa_czp9hUCBb_Yy-52" value="Peer Connection 1&lt;div&gt;169.254.1.2&lt;/div&gt;" style="text;html=1;whiteSpace=wrap;strokeColor=none;fillColor=none;align=center;verticalAlign=middle;rounded=0;" vertex="1" parent="1">
          <mxGeometry x="672" y="582" width="120" height="50" as="geometry" />
        </mxCell>
        <mxCell id="FNdhJYa_czp9hUCBb_Yy-53" value="" style="rounded=0;whiteSpace=wrap;html=1;" vertex="1" parent="1">
          <mxGeometry x="1100" y="110" width="710" height="650" as="geometry" />
        </mxCell>
        <mxCell id="FNdhJYa_czp9hUCBb_Yy-54" value="On-prem Network" style="text;html=1;whiteSpace=wrap;strokeColor=none;fillColor=none;align=center;verticalAlign=middle;rounded=0;" vertex="1" parent="1">
          <mxGeometry x="1107" y="120" width="60" height="30" as="geometry" />
        </mxCell>
        <mxCell id="FNdhJYa_czp9hUCBb_Yy-55" value="" style="rounded=0;whiteSpace=wrap;html=1;" vertex="1" parent="1">
          <mxGeometry x="1570" y="158" width="190" height="130" as="geometry" />
        </mxCell>
        <mxCell id="FNdhJYa_czp9hUCBb_Yy-57" value="Subnetwork 1&lt;div&gt;192.168.1.0/24&lt;/div&gt;" style="text;html=1;whiteSpace=wrap;strokeColor=none;fillColor=none;align=left;verticalAlign=middle;rounded=0;" vertex="1" parent="1">
          <mxGeometry x="1577" y="158" width="90" height="50" as="geometry" />
        </mxCell>
        <mxCell id="FNdhJYa_czp9hUCBb_Yy-59" value="Cloud Compute Instance 1&lt;span style=&quot;color: rgba(0, 0, 0, 0); font-family: monospace; font-size: 0px; text-align: start; text-wrap-mode: nowrap;&quot;&gt;%3CmxGraphModel%3E%3Croot%3E%3CmxCell%20id%3D%220%22%2F%3E%3CmxCell%20id%3D%221%22%20parent%3D%220%22%2F%3E%3CmxCell%20id%3D%222%22%20value%3D%22Subnetwork%201%26lt%3Bdiv%26gt%3B10.1.1.0%2F24%26lt%3B%2Fdiv%26gt%3B%22%20style%3D%22text%3Bhtml%3D1%3BwhiteSpace%3Dwrap%3BstrokeColor%3Dnone%3BfillColor%3Dnone%3Balign%3Dleft%3BverticalAlign%3Dmiddle%3Brounded%3D0%3B%22%20vertex%3D%221%22%20parent%3D%221%22%3E%3CmxGeometry%20x%3D%22230%22%20y%3D%22170%22%20width%3D%2290%22%20height%3D%2250%22%20as%3D%22geometry%22%2F%3E%3C%2FmxCell%3E%3C%2Froot%3E%3C%2FmxGraphModel%3E&lt;/span&gt;" style="shape=process;whiteSpace=wrap;html=1;backgroundOutline=1;" vertex="1" parent="1">
          <mxGeometry x="1590" y="208" width="120" height="60" as="geometry" />
        </mxCell>
        <mxCell id="FNdhJYa_czp9hUCBb_Yy-61" value="" style="rounded=0;whiteSpace=wrap;html=1;" vertex="1" parent="1">
          <mxGeometry x="1550" y="344" width="230" height="396" as="geometry" />
        </mxCell>
        <mxCell id="FNdhJYa_czp9hUCBb_Yy-62" value="Firewall" style="text;html=1;whiteSpace=wrap;strokeColor=none;fillColor=none;align=left;verticalAlign=middle;rounded=0;" vertex="1" parent="1">
          <mxGeometry x="1557" y="344" width="90" height="30" as="geometry" />
        </mxCell>
        <mxCell id="FNdhJYa_czp9hUCBb_Yy-63" value="Rule 1 (192.168.0.0/16)" style="swimlane;fontStyle=0;childLayout=stackLayout;horizontal=1;startSize=30;horizontalStack=0;resizeParent=1;resizeParentMax=0;resizeLast=0;collapsible=1;marginBottom=0;whiteSpace=wrap;html=1;" vertex="1" parent="1">
          <mxGeometry x="1610" y="360" width="140" height="120" as="geometry">
            <mxRectangle x="1660" y="360" width="170" height="30" as="alternateBounds" />
          </mxGeometry>
        </mxCell>
        <mxCell id="FNdhJYa_czp9hUCBb_Yy-64" value="tcp: 0 - 65535" style="text;strokeColor=none;fillColor=none;align=left;verticalAlign=middle;spacingLeft=4;spacingRight=4;overflow=hidden;points=[[0,0.5],[1,0.5]];portConstraint=eastwest;rotatable=0;whiteSpace=wrap;html=1;" vertex="1" parent="FNdhJYa_czp9hUCBb_Yy-63">
          <mxGeometry y="30" width="140" height="30" as="geometry" />
        </mxCell>
        <mxCell id="FNdhJYa_czp9hUCBb_Yy-65" value="udp: 0 - 65535" style="text;strokeColor=none;fillColor=none;align=left;verticalAlign=middle;spacingLeft=4;spacingRight=4;overflow=hidden;points=[[0,0.5],[1,0.5]];portConstraint=eastwest;rotatable=0;whiteSpace=wrap;html=1;" vertex="1" parent="FNdhJYa_czp9hUCBb_Yy-63">
          <mxGeometry y="60" width="140" height="30" as="geometry" />
        </mxCell>
        <mxCell id="FNdhJYa_czp9hUCBb_Yy-66" value="icmp" style="text;strokeColor=none;fillColor=none;align=left;verticalAlign=middle;spacingLeft=4;spacingRight=4;overflow=hidden;points=[[0,0.5],[1,0.5]];portConstraint=eastwest;rotatable=0;whiteSpace=wrap;html=1;" vertex="1" parent="FNdhJYa_czp9hUCBb_Yy-63">
          <mxGeometry y="90" width="140" height="30" as="geometry" />
        </mxCell>
        <mxCell id="FNdhJYa_czp9hUCBb_Yy-67" value="Rule 2 (0.0.0.0/0)" style="swimlane;fontStyle=0;childLayout=stackLayout;horizontal=1;startSize=30;horizontalStack=0;resizeParent=1;resizeParentMax=0;resizeLast=0;collapsible=1;marginBottom=0;whiteSpace=wrap;html=1;" vertex="1" parent="1">
          <mxGeometry x="1610" y="490" width="140" height="90" as="geometry" />
        </mxCell>
        <mxCell id="FNdhJYa_czp9hUCBb_Yy-68" value="tcp: 22" style="text;strokeColor=none;fillColor=none;align=left;verticalAlign=middle;spacingLeft=4;spacingRight=4;overflow=hidden;points=[[0,0.5],[1,0.5]];portConstraint=eastwest;rotatable=0;whiteSpace=wrap;html=1;" vertex="1" parent="FNdhJYa_czp9hUCBb_Yy-67">
          <mxGeometry y="30" width="140" height="30" as="geometry" />
        </mxCell>
        <mxCell id="FNdhJYa_czp9hUCBb_Yy-69" value="icmp" style="text;strokeColor=none;fillColor=none;align=left;verticalAlign=middle;spacingLeft=4;spacingRight=4;overflow=hidden;points=[[0,0.5],[1,0.5]];portConstraint=eastwest;rotatable=0;whiteSpace=wrap;html=1;" vertex="1" parent="FNdhJYa_czp9hUCBb_Yy-67">
          <mxGeometry y="60" width="140" height="30" as="geometry" />
        </mxCell>
        <mxCell id="FNdhJYa_czp9hUCBb_Yy-70" value="Rule 3 (10.1.1.0/24 - 10.2.1.0/24)" style="swimlane;fontStyle=0;childLayout=stackLayout;horizontal=1;startSize=30;horizontalStack=0;resizeParent=1;resizeParentMax=0;resizeLast=0;collapsible=1;marginBottom=0;whiteSpace=wrap;html=1;" vertex="1" parent="1">
          <mxGeometry x="1610" y="590" width="140" height="120" as="geometry" />
        </mxCell>
        <mxCell id="FNdhJYa_czp9hUCBb_Yy-71" value="tcp" style="text;strokeColor=none;fillColor=none;align=left;verticalAlign=middle;spacingLeft=4;spacingRight=4;overflow=hidden;points=[[0,0.5],[1,0.5]];portConstraint=eastwest;rotatable=0;whiteSpace=wrap;html=1;" vertex="1" parent="FNdhJYa_czp9hUCBb_Yy-70">
          <mxGeometry y="30" width="140" height="30" as="geometry" />
        </mxCell>
        <mxCell id="FNdhJYa_czp9hUCBb_Yy-72" value="udp" style="text;strokeColor=none;fillColor=none;align=left;verticalAlign=middle;spacingLeft=4;spacingRight=4;overflow=hidden;points=[[0,0.5],[1,0.5]];portConstraint=eastwest;rotatable=0;whiteSpace=wrap;html=1;" vertex="1" parent="FNdhJYa_czp9hUCBb_Yy-70">
          <mxGeometry y="60" width="140" height="30" as="geometry" />
        </mxCell>
        <mxCell id="FNdhJYa_czp9hUCBb_Yy-73" value="icmp" style="text;strokeColor=none;fillColor=none;align=left;verticalAlign=middle;spacingLeft=4;spacingRight=4;overflow=hidden;points=[[0,0.5],[1,0.5]];portConstraint=eastwest;rotatable=0;whiteSpace=wrap;html=1;" vertex="1" parent="FNdhJYa_czp9hUCBb_Yy-70">
          <mxGeometry y="90" width="140" height="30" as="geometry" />
        </mxCell>
        <mxCell id="FNdhJYa_czp9hUCBb_Yy-74" value="" style="rounded=0;whiteSpace=wrap;html=1;" vertex="1" parent="1">
          <mxGeometry x="1207" y="412" width="310" height="260" as="geometry" />
        </mxCell>
        <mxCell id="FNdhJYa_czp9hUCBb_Yy-75" value="Router (ASN: 65002)" style="text;html=1;whiteSpace=wrap;strokeColor=none;fillColor=none;align=left;verticalAlign=middle;rounded=0;" vertex="1" parent="1">
          <mxGeometry x="1217" y="422" width="159" height="30" as="geometry" />
        </mxCell>
        <mxCell id="FNdhJYa_czp9hUCBb_Yy-76" value="Interface 0" style="swimlane;fontStyle=0;childLayout=stackLayout;horizontal=1;startSize=30;horizontalStack=0;resizeParent=1;resizeParentMax=0;resizeLast=0;collapsible=1;marginBottom=0;whiteSpace=wrap;html=1;" vertex="1" parent="1">
          <mxGeometry x="1347" y="452" width="140" height="90" as="geometry" />
        </mxCell>
        <mxCell id="FNdhJYa_czp9hUCBb_Yy-77" value="&quot;tunnel 0 to on-prem&quot;" style="text;strokeColor=none;fillColor=none;align=left;verticalAlign=middle;spacingLeft=4;spacingRight=4;overflow=hidden;points=[[0,0.5],[1,0.5]];portConstraint=eastwest;rotatable=0;whiteSpace=wrap;html=1;" vertex="1" parent="FNdhJYa_czp9hUCBb_Yy-76">
          <mxGeometry y="30" width="140" height="30" as="geometry" />
        </mxCell>
        <mxCell id="FNdhJYa_czp9hUCBb_Yy-78" value="169.254.0.2/30" style="text;strokeColor=none;fillColor=none;align=left;verticalAlign=middle;spacingLeft=4;spacingRight=4;overflow=hidden;points=[[0,0.5],[1,0.5]];portConstraint=eastwest;rotatable=0;whiteSpace=wrap;html=1;" vertex="1" parent="FNdhJYa_czp9hUCBb_Yy-76">
          <mxGeometry y="60" width="140" height="30" as="geometry" />
        </mxCell>
        <mxCell id="FNdhJYa_czp9hUCBb_Yy-79" value="Interface 1" style="swimlane;fontStyle=0;childLayout=stackLayout;horizontal=1;startSize=30;horizontalStack=0;resizeParent=1;resizeParentMax=0;resizeLast=0;collapsible=1;marginBottom=0;whiteSpace=wrap;html=1;" vertex="1" parent="1">
          <mxGeometry x="1347" y="562" width="140" height="90" as="geometry" />
        </mxCell>
        <mxCell id="FNdhJYa_czp9hUCBb_Yy-80" value="&quot;tunnel 1 to on-prem&quot;" style="text;strokeColor=none;fillColor=none;align=left;verticalAlign=middle;spacingLeft=4;spacingRight=4;overflow=hidden;points=[[0,0.5],[1,0.5]];portConstraint=eastwest;rotatable=0;whiteSpace=wrap;html=1;" vertex="1" parent="FNdhJYa_czp9hUCBb_Yy-79">
          <mxGeometry y="30" width="140" height="30" as="geometry" />
        </mxCell>
        <mxCell id="FNdhJYa_czp9hUCBb_Yy-81" value="169.254.1.2/30" style="text;strokeColor=none;fillColor=none;align=left;verticalAlign=middle;spacingLeft=4;spacingRight=4;overflow=hidden;points=[[0,0.5],[1,0.5]];portConstraint=eastwest;rotatable=0;whiteSpace=wrap;html=1;" vertex="1" parent="FNdhJYa_czp9hUCBb_Yy-79">
          <mxGeometry y="60" width="140" height="30" as="geometry" />
        </mxCell>
        <mxCell id="FNdhJYa_czp9hUCBb_Yy-82" value="" style="rounded=0;whiteSpace=wrap;html=1;" vertex="1" parent="1">
          <mxGeometry x="1057" y="412" width="120" height="260" as="geometry" />
        </mxCell>
        <mxCell id="FNdhJYa_czp9hUCBb_Yy-83" value="VPN Gateway" style="text;html=1;whiteSpace=wrap;strokeColor=none;fillColor=none;align=center;verticalAlign=middle;rounded=0;" vertex="1" parent="1">
          <mxGeometry x="1067" y="422" width="60" height="30" as="geometry" />
        </mxCell>
        <mxCell id="FNdhJYa_czp9hUCBb_Yy-84" value="Interface 0" style="rounded=0;whiteSpace=wrap;html=1;" vertex="1" parent="1">
          <mxGeometry x="1067" y="477" width="100" height="40" as="geometry" />
        </mxCell>
        <mxCell id="FNdhJYa_czp9hUCBb_Yy-85" value="Interface 1" style="rounded=0;whiteSpace=wrap;html=1;" vertex="1" parent="1">
          <mxGeometry x="1067" y="587" width="100" height="40" as="geometry" />
        </mxCell>
        <mxCell id="FNdhJYa_czp9hUCBb_Yy-86" value="" style="endArrow=classic;startArrow=classic;html=1;rounded=0;exitX=0;exitY=0.5;exitDx=0;exitDy=0;entryX=1;entryY=0.5;entryDx=0;entryDy=0;" edge="1" parent="1" source="FNdhJYa_czp9hUCBb_Yy-77" target="FNdhJYa_czp9hUCBb_Yy-84">
          <mxGeometry width="50" height="50" relative="1" as="geometry">
            <mxPoint x="1767" y="459" as="sourcePoint" />
            <mxPoint x="1817" y="409" as="targetPoint" />
          </mxGeometry>
        </mxCell>
        <mxCell id="FNdhJYa_czp9hUCBb_Yy-87" value="" style="endArrow=classic;startArrow=classic;html=1;rounded=0;entryX=0;entryY=0.5;entryDx=0;entryDy=0;" edge="1" parent="1" target="FNdhJYa_czp9hUCBb_Yy-80">
          <mxGeometry width="50" height="50" relative="1" as="geometry">
            <mxPoint x="1167" y="607" as="sourcePoint" />
            <mxPoint x="1227" y="607" as="targetPoint" />
          </mxGeometry>
        </mxCell>
        <mxCell id="FNdhJYa_czp9hUCBb_Yy-88" value="" style="endArrow=classic;startArrow=classic;html=1;rounded=0;exitX=0;exitY=0.5;exitDx=0;exitDy=0;entryX=1;entryY=0.5;entryDx=0;entryDy=0;" edge="1" parent="1" source="FNdhJYa_czp9hUCBb_Yy-61" target="FNdhJYa_czp9hUCBb_Yy-74">
          <mxGeometry width="50" height="50" relative="1" as="geometry">
            <mxPoint x="1590" y="360" as="sourcePoint" />
            <mxPoint x="1640" y="310" as="targetPoint" />
          </mxGeometry>
        </mxCell>
        <mxCell id="FNdhJYa_czp9hUCBb_Yy-90" value="" style="endArrow=classic;startArrow=classic;html=1;rounded=0;entryX=0.5;entryY=1;entryDx=0;entryDy=0;exitX=0.5;exitY=0;exitDx=0;exitDy=0;edgeStyle=orthogonalEdgeStyle;" edge="1" parent="1" source="FNdhJYa_czp9hUCBb_Yy-61" target="FNdhJYa_czp9hUCBb_Yy-55">
          <mxGeometry width="50" height="50" relative="1" as="geometry">
            <mxPoint x="1350" y="384" as="sourcePoint" />
            <mxPoint x="1415" y="340" as="targetPoint" />
          </mxGeometry>
        </mxCell>
        <mxCell id="FNdhJYa_czp9hUCBb_Yy-91" value="Peer Connection 0&lt;div&gt;169.254.0.1&lt;/div&gt;" style="text;html=1;whiteSpace=wrap;strokeColor=none;fillColor=none;align=center;verticalAlign=middle;rounded=0;" vertex="1" parent="1">
          <mxGeometry x="1217" y="472" width="120" height="50" as="geometry" />
        </mxCell>
        <mxCell id="FNdhJYa_czp9hUCBb_Yy-92" value="Peer Connection 1&lt;div&gt;169.254.1.1&lt;/div&gt;" style="text;html=1;whiteSpace=wrap;strokeColor=none;fillColor=none;align=center;verticalAlign=middle;rounded=0;" vertex="1" parent="1">
          <mxGeometry x="1217" y="582" width="120" height="50" as="geometry" />
        </mxCell>
        <mxCell id="FNdhJYa_czp9hUCBb_Yy-93" value="" style="shape=flexArrow;endArrow=classic;startArrow=classic;html=1;rounded=0;entryX=0;entryY=0.5;entryDx=0;entryDy=0;exitX=1;exitY=0.5;exitDx=0;exitDy=0;fillColor=default;" edge="1" parent="1" source="FNdhJYa_czp9hUCBb_Yy-44" target="FNdhJYa_czp9hUCBb_Yy-84">
          <mxGeometry width="100" height="100" relative="1" as="geometry">
            <mxPoint x="1300" y="510" as="sourcePoint" />
            <mxPoint x="1400" y="410" as="targetPoint" />
          </mxGeometry>
        </mxCell>
        <mxCell id="FNdhJYa_czp9hUCBb_Yy-95" value="" style="shape=flexArrow;endArrow=classic;startArrow=classic;html=1;rounded=0;entryX=0;entryY=0.5;entryDx=0;entryDy=0;exitX=1;exitY=0.5;exitDx=0;exitDy=0;fillColor=default;" edge="1" parent="1" source="FNdhJYa_czp9hUCBb_Yy-45" target="FNdhJYa_czp9hUCBb_Yy-85">
          <mxGeometry width="100" height="100" relative="1" as="geometry">
            <mxPoint x="968" y="608" as="sourcePoint" />
            <mxPoint x="1120" y="606" as="targetPoint" />
          </mxGeometry>
        </mxCell>
        <mxCell id="FNdhJYa_czp9hUCBb_Yy-97" value="Tunnel 0" style="text;html=1;whiteSpace=wrap;strokeColor=none;fillColor=none;align=center;verticalAlign=middle;rounded=0;" vertex="1" parent="1">
          <mxGeometry x="969" y="460" width="60" height="30" as="geometry" />
        </mxCell>
        <mxCell id="FNdhJYa_czp9hUCBb_Yy-98" value="Tunnel 1" style="text;html=1;whiteSpace=wrap;strokeColor=none;fillColor=none;align=center;verticalAlign=middle;rounded=0;" vertex="1" parent="1">
          <mxGeometry x="969" y="570" width="60" height="30" as="geometry" />
        </mxCell>
      </root>
    </mxGraphModel>
  </diagram>
</mxfile>
